<mxfile host="app.diagrams.net" agent="Mozilla/5.0 (Windows NT 10.0; Win64; x64) AppleWebKit/537.36 (KHTML, like Gecko) Chrome/129.0.0.0 Safari/537.36" version="24.8.0">
  <diagram name="第 1 页" id="8lLwG0wIfCJ61GxavaxG">
    <mxGraphModel dx="2074" dy="1106" grid="1" gridSize="10" guides="1" tooltips="1" connect="1" arrows="1" fold="1" page="1" pageScale="1" pageWidth="827" pageHeight="1169" math="0" shadow="0">
      <root>
        <mxCell id="0" />
        <mxCell id="1" parent="0" />
        <mxCell id="9vgqnC3FgCe5wyF7lnbU-56" style="edgeStyle=orthogonalEdgeStyle;rounded=0;orthogonalLoop=1;jettySize=auto;html=1;exitX=1;exitY=0.5;exitDx=0;exitDy=0;" edge="1" parent="1" source="9vgqnC3FgCe5wyF7lnbU-1" target="9vgqnC3FgCe5wyF7lnbU-2">
          <mxGeometry relative="1" as="geometry" />
        </mxCell>
        <mxCell id="9vgqnC3FgCe5wyF7lnbU-1" value="机器" style="whiteSpace=wrap;html=1;aspect=fixed;" vertex="1" parent="1">
          <mxGeometry x="40" y="240" width="80" height="80" as="geometry" />
        </mxCell>
        <mxCell id="9vgqnC3FgCe5wyF7lnbU-26" style="edgeStyle=orthogonalEdgeStyle;rounded=0;orthogonalLoop=1;jettySize=auto;html=1;exitX=1;exitY=0.5;exitDx=0;exitDy=0;entryX=0;entryY=0.5;entryDx=0;entryDy=0;" edge="1" parent="1" source="9vgqnC3FgCe5wyF7lnbU-2" target="9vgqnC3FgCe5wyF7lnbU-16">
          <mxGeometry relative="1" as="geometry" />
        </mxCell>
        <mxCell id="9vgqnC3FgCe5wyF7lnbU-27" style="rounded=0;orthogonalLoop=1;jettySize=auto;html=1;exitX=0.95;exitY=0.425;exitDx=0;exitDy=0;entryX=0;entryY=0.5;entryDx=0;entryDy=0;exitPerimeter=0;" edge="1" parent="1" source="9vgqnC3FgCe5wyF7lnbU-50" target="9vgqnC3FgCe5wyF7lnbU-19">
          <mxGeometry relative="1" as="geometry" />
        </mxCell>
        <mxCell id="9vgqnC3FgCe5wyF7lnbU-28" value="如果机器检测心跳没有" style="edgeLabel;html=1;align=center;verticalAlign=middle;resizable=0;points=[];" vertex="1" connectable="0" parent="9vgqnC3FgCe5wyF7lnbU-27">
          <mxGeometry x="-0.1045" y="-4" relative="1" as="geometry">
            <mxPoint x="26" y="-27" as="offset" />
          </mxGeometry>
        </mxCell>
        <mxCell id="9vgqnC3FgCe5wyF7lnbU-46" style="edgeStyle=orthogonalEdgeStyle;rounded=0;orthogonalLoop=1;jettySize=auto;html=1;exitX=0.5;exitY=0;exitDx=0;exitDy=0;entryX=0.5;entryY=1;entryDx=0;entryDy=0;" edge="1" parent="1" source="9vgqnC3FgCe5wyF7lnbU-2" target="9vgqnC3FgCe5wyF7lnbU-42">
          <mxGeometry relative="1" as="geometry" />
        </mxCell>
        <mxCell id="9vgqnC3FgCe5wyF7lnbU-58" style="rounded=0;orthogonalLoop=1;jettySize=auto;html=1;exitX=0;exitY=1;exitDx=0;exitDy=0;entryX=1;entryY=0.25;entryDx=0;entryDy=0;" edge="1" parent="1" source="9vgqnC3FgCe5wyF7lnbU-2" target="9vgqnC3FgCe5wyF7lnbU-50">
          <mxGeometry relative="1" as="geometry" />
        </mxCell>
        <mxCell id="9vgqnC3FgCe5wyF7lnbU-59" value="获取信息和图片" style="edgeLabel;html=1;align=center;verticalAlign=middle;resizable=0;points=[];" vertex="1" connectable="0" parent="9vgqnC3FgCe5wyF7lnbU-58">
          <mxGeometry x="-0.04" y="1" relative="1" as="geometry">
            <mxPoint as="offset" />
          </mxGeometry>
        </mxCell>
        <mxCell id="9vgqnC3FgCe5wyF7lnbU-2" value="服务器" style="whiteSpace=wrap;html=1;aspect=fixed;" vertex="1" parent="1">
          <mxGeometry x="300" y="240" width="80" height="80" as="geometry" />
        </mxCell>
        <mxCell id="9vgqnC3FgCe5wyF7lnbU-15" style="edgeStyle=orthogonalEdgeStyle;rounded=0;orthogonalLoop=1;jettySize=auto;html=1;exitX=1;exitY=0.5;exitDx=0;exitDy=0;entryX=0;entryY=0.5;entryDx=0;entryDy=0;" edge="1" parent="1" source="9vgqnC3FgCe5wyF7lnbU-7" target="9vgqnC3FgCe5wyF7lnbU-12">
          <mxGeometry relative="1" as="geometry" />
        </mxCell>
        <mxCell id="9vgqnC3FgCe5wyF7lnbU-64" style="edgeStyle=orthogonalEdgeStyle;rounded=0;orthogonalLoop=1;jettySize=auto;html=1;exitX=0.5;exitY=0;exitDx=0;exitDy=0;entryX=1;entryY=0.5;entryDx=0;entryDy=0;" edge="1" parent="1" source="9vgqnC3FgCe5wyF7lnbU-7" target="9vgqnC3FgCe5wyF7lnbU-31">
          <mxGeometry relative="1" as="geometry" />
        </mxCell>
        <mxCell id="9vgqnC3FgCe5wyF7lnbU-7" value="对象存储服务" style="whiteSpace=wrap;html=1;aspect=fixed;" vertex="1" parent="1">
          <mxGeometry x="590" y="230" width="80" height="80" as="geometry" />
        </mxCell>
        <mxCell id="9vgqnC3FgCe5wyF7lnbU-12" value="mysql" style="whiteSpace=wrap;html=1;aspect=fixed;" vertex="1" parent="1">
          <mxGeometry x="720" y="230" width="80" height="80" as="geometry" />
        </mxCell>
        <mxCell id="9vgqnC3FgCe5wyF7lnbU-20" style="rounded=0;orthogonalLoop=1;jettySize=auto;html=1;exitX=0.5;exitY=1;exitDx=0;exitDy=0;entryX=0.5;entryY=0;entryDx=0;entryDy=0;" edge="1" parent="1">
          <mxGeometry relative="1" as="geometry">
            <mxPoint x="485" y="320" as="sourcePoint" />
            <mxPoint x="495" y="545" as="targetPoint" />
          </mxGeometry>
        </mxCell>
        <mxCell id="9vgqnC3FgCe5wyF7lnbU-22" value="如果设备发现了有问题" style="edgeLabel;html=1;align=center;verticalAlign=middle;resizable=0;points=[];" vertex="1" connectable="0" parent="9vgqnC3FgCe5wyF7lnbU-20">
          <mxGeometry x="-0.0857" y="2" relative="1" as="geometry">
            <mxPoint x="8" as="offset" />
          </mxGeometry>
        </mxCell>
        <mxCell id="9vgqnC3FgCe5wyF7lnbU-35" style="edgeStyle=orthogonalEdgeStyle;rounded=0;orthogonalLoop=1;jettySize=auto;html=1;exitX=0.5;exitY=0;exitDx=0;exitDy=0;entryX=0.5;entryY=1;entryDx=0;entryDy=0;" edge="1" parent="1" source="9vgqnC3FgCe5wyF7lnbU-16" target="9vgqnC3FgCe5wyF7lnbU-31">
          <mxGeometry relative="1" as="geometry" />
        </mxCell>
        <mxCell id="9vgqnC3FgCe5wyF7lnbU-16" value="图片检测" style="whiteSpace=wrap;html=1;aspect=fixed;" vertex="1" parent="1">
          <mxGeometry x="440" y="240" width="80" height="80" as="geometry" />
        </mxCell>
        <mxCell id="9vgqnC3FgCe5wyF7lnbU-19" value="报警服务" style="whiteSpace=wrap;html=1;aspect=fixed;" vertex="1" parent="1">
          <mxGeometry x="450" y="545" width="80" height="80" as="geometry" />
        </mxCell>
        <mxCell id="9vgqnC3FgCe5wyF7lnbU-25" style="rounded=0;orthogonalLoop=1;jettySize=auto;html=1;exitX=1;exitY=0.5;exitDx=0;exitDy=0;entryX=-0.012;entryY=0.638;entryDx=0;entryDy=0;entryPerimeter=0;" edge="1" parent="1" source="9vgqnC3FgCe5wyF7lnbU-16" target="9vgqnC3FgCe5wyF7lnbU-7">
          <mxGeometry relative="1" as="geometry" />
        </mxCell>
        <mxCell id="9vgqnC3FgCe5wyF7lnbU-29" value="" style="endArrow=none;dashed=1;html=1;dashPattern=1 3;strokeWidth=2;rounded=0;entryX=0.25;entryY=1;entryDx=0;entryDy=0;" edge="1" parent="1" target="9vgqnC3FgCe5wyF7lnbU-12">
          <mxGeometry width="50" height="50" relative="1" as="geometry">
            <mxPoint x="530" y="600" as="sourcePoint" />
            <mxPoint x="580" y="550" as="targetPoint" />
          </mxGeometry>
        </mxCell>
        <mxCell id="9vgqnC3FgCe5wyF7lnbU-30" value="从机器读取中负责人以及手机号进行告警" style="edgeLabel;html=1;align=center;verticalAlign=middle;resizable=0;points=[];" vertex="1" connectable="0" parent="9vgqnC3FgCe5wyF7lnbU-29">
          <mxGeometry x="0.0214" y="2" relative="1" as="geometry">
            <mxPoint as="offset" />
          </mxGeometry>
        </mxCell>
        <mxCell id="9vgqnC3FgCe5wyF7lnbU-31" value="mongodb" style="whiteSpace=wrap;html=1;aspect=fixed;" vertex="1" parent="1">
          <mxGeometry x="440" y="80" width="80" height="80" as="geometry" />
        </mxCell>
        <mxCell id="9vgqnC3FgCe5wyF7lnbU-34" value="机器图片的参数情况" style="text;html=1;align=center;verticalAlign=middle;whiteSpace=wrap;rounded=0;" vertex="1" parent="1">
          <mxGeometry x="500" y="170" width="90" height="60" as="geometry" />
        </mxCell>
        <mxCell id="9vgqnC3FgCe5wyF7lnbU-36" style="edgeStyle=orthogonalEdgeStyle;rounded=0;orthogonalLoop=1;jettySize=auto;html=1;exitX=0;exitY=0;exitDx=0;exitDy=0;entryX=0.011;entryY=0.15;entryDx=0;entryDy=0;entryPerimeter=0;" edge="1" parent="1" source="9vgqnC3FgCe5wyF7lnbU-34" target="9vgqnC3FgCe5wyF7lnbU-34">
          <mxGeometry relative="1" as="geometry" />
        </mxCell>
        <mxCell id="9vgqnC3FgCe5wyF7lnbU-37" value="前端" style="rounded=0;whiteSpace=wrap;html=1;" vertex="1" parent="1">
          <mxGeometry x="80" y="50" width="120" height="60" as="geometry" />
        </mxCell>
        <mxCell id="9vgqnC3FgCe5wyF7lnbU-48" style="rounded=0;orthogonalLoop=1;jettySize=auto;html=1;exitX=0;exitY=0.5;exitDx=0;exitDy=0;entryX=1;entryY=0.5;entryDx=0;entryDy=0;" edge="1" parent="1" source="9vgqnC3FgCe5wyF7lnbU-40" target="9vgqnC3FgCe5wyF7lnbU-37">
          <mxGeometry relative="1" as="geometry" />
        </mxCell>
        <mxCell id="9vgqnC3FgCe5wyF7lnbU-40" value="redis" style="rounded=0;whiteSpace=wrap;html=1;" vertex="1" parent="1">
          <mxGeometry x="270" y="20" width="120" height="60" as="geometry" />
        </mxCell>
        <mxCell id="9vgqnC3FgCe5wyF7lnbU-42" value="数据统计服务" style="whiteSpace=wrap;html=1;aspect=fixed;" vertex="1" parent="1">
          <mxGeometry x="300" y="120" width="80" height="80" as="geometry" />
        </mxCell>
        <mxCell id="9vgqnC3FgCe5wyF7lnbU-45" style="rounded=0;orthogonalLoop=1;jettySize=auto;html=1;exitX=1;exitY=1;exitDx=0;exitDy=0;entryX=0;entryY=0.125;entryDx=0;entryDy=0;entryPerimeter=0;" edge="1" parent="1" source="9vgqnC3FgCe5wyF7lnbU-37" target="9vgqnC3FgCe5wyF7lnbU-2">
          <mxGeometry relative="1" as="geometry" />
        </mxCell>
        <mxCell id="9vgqnC3FgCe5wyF7lnbU-49" value="读取到某点的报警值达到" style="text;html=1;align=center;verticalAlign=middle;whiteSpace=wrap;rounded=0;" vertex="1" parent="1">
          <mxGeometry x="250" y="470" width="80" height="60" as="geometry" />
        </mxCell>
        <mxCell id="9vgqnC3FgCe5wyF7lnbU-54" style="rounded=0;orthogonalLoop=1;jettySize=auto;html=1;exitX=0;exitY=0;exitDx=0;exitDy=0;entryX=1;entryY=0.75;entryDx=0;entryDy=0;" edge="1" parent="1" source="9vgqnC3FgCe5wyF7lnbU-50" target="9vgqnC3FgCe5wyF7lnbU-1">
          <mxGeometry relative="1" as="geometry" />
        </mxCell>
        <mxCell id="9vgqnC3FgCe5wyF7lnbU-50" value="定时任务" style="whiteSpace=wrap;html=1;aspect=fixed;" vertex="1" parent="1">
          <mxGeometry x="170" y="350" width="80" height="80" as="geometry" />
        </mxCell>
        <mxCell id="9vgqnC3FgCe5wyF7lnbU-55" style="rounded=0;orthogonalLoop=1;jettySize=auto;html=1;exitX=1;exitY=0.75;exitDx=0;exitDy=0;entryX=-0.012;entryY=0.863;entryDx=0;entryDy=0;entryPerimeter=0;" edge="1" parent="1" source="9vgqnC3FgCe5wyF7lnbU-50" target="9vgqnC3FgCe5wyF7lnbU-19">
          <mxGeometry relative="1" as="geometry" />
        </mxCell>
        <mxCell id="9vgqnC3FgCe5wyF7lnbU-57" value="心跳" style="text;html=1;align=center;verticalAlign=middle;resizable=0;points=[];autosize=1;strokeColor=none;fillColor=none;" vertex="1" parent="1">
          <mxGeometry x="125" y="308" width="50" height="30" as="geometry" />
        </mxCell>
        <mxCell id="9vgqnC3FgCe5wyF7lnbU-60" style="rounded=0;orthogonalLoop=1;jettySize=auto;html=1;exitX=0.5;exitY=0;exitDx=0;exitDy=0;entryX=0.583;entryY=0.983;entryDx=0;entryDy=0;entryPerimeter=0;" edge="1" parent="1" source="9vgqnC3FgCe5wyF7lnbU-42" target="9vgqnC3FgCe5wyF7lnbU-40">
          <mxGeometry relative="1" as="geometry" />
        </mxCell>
        <mxCell id="9vgqnC3FgCe5wyF7lnbU-63" value="" style="endArrow=none;dashed=1;html=1;rounded=0;entryX=1;entryY=0.25;entryDx=0;entryDy=0;" edge="1" parent="1" target="9vgqnC3FgCe5wyF7lnbU-40">
          <mxGeometry width="50" height="50" relative="1" as="geometry">
            <mxPoint x="480" y="80" as="sourcePoint" />
            <mxPoint x="530" y="30" as="targetPoint" />
          </mxGeometry>
        </mxCell>
      </root>
    </mxGraphModel>
  </diagram>
</mxfile>
